<svg viewBox="0 0 850.148 1045.38" xmlns="http://www.w3.org/2000/svg"><path d="M685.852 480.54H338.147v-68.267h347.705zm0 173.853H338.147v-68.267h347.705zm0 173.852H338.147v-68.267h347.705zm164.296 217.088H0V65.023h251.22v68.268H68.267v843.777H781.88V133.29H598.925V65.025h251.22zm-633.06-1024H633.06v121.06c-.51 66.59-54.303 120.446-120.82 121.06H338.15c-66.59-.51-120.447-54.304-121.06-120.82v-.058zM564.793 89.6H285.355v52.793c.332 29.086 23.874 52.564 52.953 52.793H512c29.086-.332 52.564-23.874 52.793-52.953v-.022zM251.22 480.54h-86.925v-68.267h86.926zm0 173.853h-86.925v-68.267h86.926zm0 173.852h-86.925v-68.267h86.926z"/></svg>