<svg viewBox="0 0 759.001 1063.18" xmlns="http://www.w3.org/2000/svg"><path d="m379.26 21.333c209.36.25 379.01 169.9 379.26 379.235v.024c-1.976 85.332-22.564 165.4-57.84 236.925l1.476-3.312c-35.552 74.83-75.65 139.238-122.006 198.513l1.73-2.3c-53.617 70.09-110.57 132.11-172.584 188.676l-1.11.998-28.927 25.24-28.884-25.284c-63.124-57.565-120.077-119.585-171.213-186.3l-2.483-3.374c-44.626-56.976-84.722-121.383-117.562-189.93l-2.712-6.284c-33.805-68.198-54.409-148.248-56.393-232.903l-.012-.667c.25-209.357 169.9-379.01 379.235-379.257h.024zm0 905.48c78.75-76.992 291.468-305.426 291.468-526.22 0-160.974-130.495-291.47-291.468-291.47s-291.468 130.497-291.468 291.471c0 221.19 212.455 449.316 291.468 526.22zm0-695.658c93.578 0 169.438 75.86 169.438 169.438s-75.86 169.437-169.438 169.437-169.438-75.86-169.438-169.437c.1-93.538 75.9-169.338 169.428-169.438zm0 251.083c45.092 0 81.646-36.554 81.646-81.646s-36.554-81.646-81.646-81.646-81.646 36.554-81.646 81.646c.05 45.072 36.574 81.596 81.64 81.646z"/></svg>